<svg enable-background="new 0 0 512 512" viewBox="0 0 512 512" xmlns="http://www.w3.org/2000/svg"><g id="_x32_8_Briefcase"><g><path d="m499.871 185.614v228.379c0 27.919-22.633 50.552-50.552 50.552h-386.638c-27.919 0-50.552-22.633-50.552-50.552v-228.379c0-27.919 22.633-50.552 50.552-50.552h386.637c27.92 0 50.553 22.633 50.553 50.552z" fill="#b8daff"/><path d="m499.871 250.249v-64.635c0-27.919-22.633-50.552-50.552-50.552h-386.638c-27.919 0-50.552 22.633-50.552 50.552v64.635c151.942 56.333 314.522 56.332 487.742 0z" fill="#fff"/><path d="m292.968 279.824v38.024c0 9.917-8.039 17.956-17.956 17.956h-38.024c-9.917 0-17.956-8.039-17.956-17.956v-38.024c0-9.917 8.039-17.956 17.956-17.956h38.024c9.917 0 17.956 8.039 17.956 17.956z" fill="#fefdfe"/><path d="m449.32 128.963h-90.051v-43.72c0-24.201-19.686-43.887-43.887-43.887h-118.764c-24.201 0-43.887 19.686-43.887 43.887v43.721h-90.051c-31.236 0-56.648 25.416-56.648 56.652v228.376c0 31.236 25.411 56.652 56.648 56.652h386.64c31.236 0 56.648-25.416 56.648-56.652 0-53.255 0-175.482 0-228.376 0-31.237-25.412-56.653-56.648-56.653zm-284.395-43.72c0-17.476 14.218-31.694 31.694-31.694h118.763c17.476 0 31.694 14.218 31.694 31.694v43.721h-182.151zm284.395 373.208h-386.64c-24.511 0-44.454-19.943-44.454-44.459v-155.163c62.848 22.398 127.859 35.23 194.711 38.554v20.466c0 13.265 10.788 24.054 24.054 24.054h38.019c13.265 0 24.054-10.788 24.054-24.054v-21.346c63.515-4.433 128.501-17.089 194.711-37.987v155.476c-.001 24.516-19.944 44.459-44.455 44.459zm-224.19-140.602v-38.024c0-6.54 5.32-11.86 11.86-11.86h38.019c6.54 0 11.86 5.32 11.86 11.86v38.024c0 6.54-5.32 11.86-11.86 11.86h-38.019c-6.539 0-11.86-5.32-11.86-11.86zm268.644-72.037c-66.25 21.206-131.231 33.968-194.711 38.469v-4.455c0-13.265-10.788-24.054-24.054-24.054h-38.019c-13.265 0-24.054 10.788-24.054 24.054v5.347c-66.914-3.385-131.947-16.357-194.711-39.179v-60.377c0-24.516 19.943-44.459 44.454-44.459h386.64c24.511 0 44.454 19.943 44.454 44.459v60.195z" fill="#3f8cf4"/></g></g><g id="Layer_1"/></svg>