<svg id="Layer_1" enable-background="new 0 0 55 55" viewBox="0 0 55 55" xmlns="http://www.w3.org/2000/svg"><g><path d="m20 26.7v-1.6c0-1.5 1.2-2.7 2.7-2.7h2.2c1.5 0 2.7 1.2 2.7 2.7v1.6h2.7c0-.1.1-.3.2-.4l-.5-5.9v-.2c.2-1.5 1.4-2.4 2.4-2.9.7-1.7 2.4-2.7 4.7-2.7 1.2 0 5.2.7 7 1.2v-3.5c0-1.5-1.2-2.7-2.7-2.7h-9.3v-3.3c0-1.5-1.2-2.8-2.8-2.8h-11c-1.5 0-2.8 1.2-2.8 2.8v3.3h-9.3c-1.5 0-2.7 1.2-2.7 2.7v11.7c0 1.5 1.2 2.7 2.7 2.7zm-2.9-20.4c0-.7.5-1.2 1.2-1.2h10.7c.7 0 1.2.5 1.2 1.2v3.3h-13.1z"/><path d="m32.5 36.4 1.1-.2v-1.5c-.9-1-1.6-2.1-1.9-3.4-1-.6-1.7-1.7-1.8-3h-2.5c0 1.5-1.2 2.7-2.7 2.7h-2.2c-1.5 0-2.7-1.2-2.7-2.7h-13.6c-.1 0-.1 0-.2 0v10.5c0 1.9 1.5 3.4 3.4 3.4h17c.8-2.9 3.1-5.1 6.1-5.8z"/><path d="m22.6 24c-.6 0-1.2.5-1.2 1.2v3.1c0 .6.5 1.2 1.2 1.2h2.2c.6 0 1.2-.5 1.2-1.2v-3.1c0-.6-.5-1.2-1.2-1.2z"/><path d="m46.1 37.9-2.4-.5c.1-.6 0-.8.1-3.4 1.2-1 1.9-2.4 2.2-4 1.3-.4 2-2 1.2-3.3l.4-6.4s0-1.5-2.3-2.4-7.8-1.6-7.8-1.6-3.5-.5-4 2.3c0 0-1.9.5-2.2 2l.6 6.2c-.9 1.3-.3 3 1.2 3.5.3 1.5 1 2.9 2.1 3.8 0 2.6 0 2.8.1 3.4l-2.4.5c-3.1.7-5.4 3.5-5.4 6.7v4.6c0 1.3 1 2.3 2.3 2.3h1.7v-3.2c0-.4.3-.8.8-.8s.8.3.8.8v3.2h13v-3.2c0-.4.3-.8.8-.8s.8.3.8.8v3.2h1.7c1.3 0 2.3-1 2.3-2.3v-4.6c-.2-3.3-2.4-6.1-5.6-6.8zm-3.9-.9c-.2 1.4-1.4 2.4-2.8 2.4s-2.6-1.1-2.7-2.4c0-.4 0-.3 0-2 1.7.9 3.9.8 5.5 0 .1 1.8.1 1.6 0 2zm.1-3.8c-3.4 2.2-7.8-.3-7.8-4.1v-4.5c.7-.7 1.3-1.8 1.3-2.6 0 0 4.9-.2 6.6 2.4 0 0 0-1.3-.3-2.1 0 0 1.2.4 2.4 1.5v5.4c0 1.5-.8 3-2.2 4z"/></g></svg>