<svg clip-rule="evenodd" fill-rule="evenodd" height="8.467mm" image-rendering="optimizeQuality" shape-rendering="geometricPrecision" text-rendering="geometricPrecision" viewBox="0 0 846.66 846.66" width="8.467mm" xmlns="http://www.w3.org/2000/svg"><g id="Layer_x0020_1"><path d="m397.38 346.73c35.72-32.23 58.48-70.98 68.78-117.75-59.57 2.5-121.85-.44-168.83-42.1-23.84 32.17-33.58 34.72-70.57 38.58 9.88 48.19 32.79 88.12 69.53 121.27 28.67 25.87 72.42 25.87 101.09 0zm-232.39 216.38c0-26.7 40.61-26.7 40.61 0v152.88h133.86v-228.5c0-11.21 9.09-20.3 20.31-20.3h128.54v-24.38c-2.11-.33-4.21-.65-6.29-.96-9.94-1.48-16.69-2.42-23.19-3.33-8.72-1.2-15.36-7.78-17.06-15.93l-12.92-49.72c-48.27 45.3-115.69 45.36-164.04 0l-13.16 50.66c-2.12 8.18-8.94 13.88-16.82 14.98-79.33 11.05-180.67 22.11-180.67 124.6v152.88h110.83zm493.71 60.08h52.26l81.54-54.04v-61.35c-137.48 0-274.95 0-412.43 0v61.35l81.54 54.04h52.26c20.38-72.75 124.47-72.75 144.83 0zm0 40.61c-15.29 54.57-84.72 73.73-125.58 32.86-9-8.99-15.72-20.26-19.25-32.86h-58.29c-4.63 0-8.89-1.54-12.31-4.15l-63.2-41.88v178.77h412.43v-178.77l-64.32 42.62c-4.12 2.72-8.04 3.41-12.71 3.41zm-47.96-44.75c-13.43-13.43-35.48-13.43-48.91 0-13.42 13.43-13.42 35.47 0 48.9 13.43 13.42 35.48 13.42 48.91 0 13.42-13.43 13.42-35.47 0-48.9zm32.91-151.86v-47.57h-114.73v47.57zm-155.34-65.42c0-12.38 6.95-22.77 20.31-22.77h155.33c11.22 0 20.31 9.1 20.31 20.31v67.88h128.54c11.22 0 20.31 9.09 20.31 20.3v329.36c0 11.21-9.09 20.3-20.31 20.3h-453.03c-11.22 0-20.31-9.09-20.31-20.3v-60.25h-305.61c-11.21 0-20.3-9.09-20.3-20.31v-173.18c0-122.79 102.68-148.65 202.32-162.84l16.53-63.65c-16.34-22.04-28.69-46.13-37.28-72.4-13.89-42.51-17.69-90.45-12.28-144.48 9.36-93.69 126.93-131.93 206.61-98.09 61.65-18.39 115.67 40.98 121.38 98.09 4.84 48.41 2.91 97.96-12.29 144.48-8.58 26.27-20.94 50.36-37.28 72.4l16.53 63.64zm-16.41-213.61c1.39-20.21.91-41.68-1.37-64.46-3.41-34.16-36.78-77.03-74.43-61.51-9.66 3.97-15.41-.34-23.63-3.58-56.17-22.2-142.86.17-149.34 65.09-2.17 21.71-2.71 42.22-1.55 61.6 33.36-3.43 36.84-11.21 56.07-41.31 7.68-12.06 25.02-12.44 33.34-1.14 39.25 48.39 104.1 48.04 160.91 45.31z" fill-rule="nonzero"/></g></svg>