<?xml version="1.0"?>
<svg xmlns="http://www.w3.org/2000/svg" id="Layer_1" data-name="Layer 1" viewBox="0 0 512 512"><path d="M511.578,329.793l-3.231-21.376c-3.1-20.427-11.715-39.038-24.268-52.4a70.128,70.128,0,0,0-36.07-20.949A54.481,54.481,0,0,0,468.2,192.728V126.506l10.772-3.79v16.037a6.988,6.988,0,1,0,13.976,0V117.27a6.967,6.967,0,0,0-2.231-11.87L415.538,78.951a7,7,0,0,0-4.638,0L335.693,105.4a6.988,6.988,0,0,0,0,13.184l22.545,7.928v66.216a54.5,54.5,0,0,0,20.185,42.341,69.655,69.655,0,0,0-29.046,14.305c-4-16.872-11.825-32.061-22.516-43.439A70.134,70.134,0,0,0,290.786,185a54.526,54.526,0,0,0,20.2-42.364V76.423l10.772-3.793V88.662a6.988,6.988,0,0,0,13.976,0V67.179a6.967,6.967,0,0,0-2.231-11.87L258.32,28.861a6.988,6.988,0,0,0-4.638,0L178.475,55.309a6.988,6.988,0,0,0,0,13.183l22.548,7.938v66.206A54.535,54.535,0,0,0,221.2,185a70.108,70.108,0,0,0-36.086,20.94c-10.69,11.38-18.506,26.569-22.5,43.438a69.653,69.653,0,0,0-29.066-14.308,54.492,54.492,0,0,0,20.183-42.338V126.516l10.8-3.8v16.037a6.988,6.988,0,1,0,13.975,0V117.27a6.966,6.966,0,0,0-2.231-11.87L101.1,78.951a7,7,0,0,0-4.637,0L21.258,105.4a6.988,6.988,0,0,0,0,13.184L43.8,126.513v66.215a54.5,54.5,0,0,0,20.176,42.333A70.1,70.1,0,0,0,27.9,256.014C15.345,269.383,6.736,288,3.656,308.419L.424,329.791A33.546,33.546,0,0,0,8.357,357.45c10.531,12.244,39.525,16.887,61.993,18.625,8.711.674,17.811,1,26.918,1A338.954,338.954,0,0,0,144.044,374a111.971,111.971,0,0,0,223.883.261,332.714,332.714,0,0,0,44.8,2.851c38.735,0,79.066-5.907,90.892-19.658A33.553,33.553,0,0,0,511.578,329.793ZM454.224,156.768H372.213V131.427L410.9,145.033a7,7,0,0,0,4.638,0l38.686-13.611ZM413.218,92.951l54.124,19.041-54.124,19.041-54.144-19.041Zm-41,99.777V170.743h82.011v21.985a40.668,40.668,0,0,1-40.637,40.607h-.765A40.654,40.654,0,0,1,372.213,192.728Zm-75.206-86.022H215V81.35l38.685,13.619a6.98,6.98,0,0,0,4.641,0l38.685-13.624ZM256,42.86l54.134,19.045L256,80.97,201.847,61.905Zm-41,99.776V120.681h82.011v21.955a40.683,40.683,0,0,1-40.637,40.637H255.6A40.669,40.669,0,0,1,215,142.636Zm-40.3,117.779c4.742-31.441,25.815-63.167,62.2-63.167h38.184c36.375,0,57.466,31.729,62.232,63.17l.182,1.2a92.049,92.049,0,0,0-12.526,21.784,111.769,111.769,0,0,0-137.951,0,91.965,91.965,0,0,0-12.508-21.778ZM139.76,156.768H57.778V131.427l38.687,13.606a7,7,0,0,0,4.637,0l38.658-13.6ZM98.783,92.951l54.123,19.041L98.783,131.033,44.639,111.992Zm-41,99.777V170.743H139.76v21.985a40.654,40.654,0,0,1-40.608,40.607h-.766A40.654,40.654,0,0,1,57.778,192.728ZM18.951,348.336a19.7,19.7,0,0,1-4.709-16.453l3.232-21.377c4.745-31.455,25.818-63.195,62.2-63.195h38.184c30.945,0,49.942,23.142,58.007,46.11a111.641,111.641,0,0,0-31.239,66.367C96.7,367.338,30.315,361.547,18.951,348.336ZM256,469.56a98.125,98.125,0,0,1-98.013-98.014q0-2.533.128-5.034c.023-.213.038-.427.041-.643A98,98,0,1,1,256,469.56Zm237.02-121.224c-3.923,4.563-19.905,10.856-52.034,13.579-24.834,2.106-52.438,1.372-73.613-1.866a111.643,111.643,0,0,0-31.263-66.631c8.087-22.968,27.092-46.107,58-46.107H432.3c36.371,0,57.463,31.742,62.232,63.2l3.232,21.377A19.7,19.7,0,0,1,493.021,348.336ZM256,324.568c-22.725-10.4-45.465-9.8-67.653,1.793a7.992,7.992,0,0,0-4.292,7.085v84.477a8,8,0,0,0,11.7,7.082c18.752-9.824,37.271-9.811,56.615.042a8,8,0,0,0,7.26,0c19.318-9.853,37.828-9.867,56.583-.04a7.995,7.995,0,0,0,11.7-7.082V333.446a7.994,7.994,0,0,0-4.292-7.085C301.435,314.764,278.7,314.165,256,324.568Zm-7.992,81.271a73.967,73.967,0,0,0-24.212-4.18,72.1,72.1,0,0,0-23.753,4.092V338.458c15.9-7.054,31.675-7.016,47.965.07Zm63.925-.089a71.516,71.516,0,0,0-47.937.1V338.525c16.27-7.086,32.035-7.122,47.937-.068Z"/></svg>
