<svg id="Layer_1" enable-background="new 0 0 512 512" viewBox="0 0 512 512" xmlns="http://www.w3.org/2000/svg"><path d="m467.87 403.34-54.48-15.36c-2.1-.59-3.45-2.38-3.45-4.55v-14.32c11-12.26 18-30.43 18-50.69 0-6.55-.73-12.99-2.15-19.19 1.96-2.31 3.11-5.28 3.11-8.53v-24.58l18.46-5.98v47.81c-2.82.63-5.19 2.57-6.31 5.34l-6.34 15.69c-1.41 3.48-1.01 7.27 1.09 10.38s5.46 4.9 9.21 4.9h16.7c3.75 0 7.11-1.79 9.22-4.9 2.1-3.11 2.5-6.9 1.09-10.38l-6.34-15.7c-1.12-2.76-3.49-4.71-6.31-5.34v-56.04-.01c0-2.6-1.68-4.91-4.15-5.71l-33.75-10.94c-1.48-52.35-22.66-101.33-59.95-138.36-38.33-38.07-89.2-59.04-143.23-59.04-112.1 0-203.29 91.19-203.29 203.27s91.19 203.27 203.27 203.27c12.73 0 25.41-1.2 37.83-3.54-.01.32-.02.65-.02.98v26.34c0 3.31 2.69 6 6 6h228.92c3.31 0 6-2.69 6-6v-26.34c0-18.1-11.71-33.56-29.13-38.48zm-57.74-3.8 6.02 1.7-39.61 57.04-39.61-57.04 6.02-1.7c1.71-.48 3.27-1.21 4.69-2.13l25.39 18.34c1.05.76 2.28 1.14 3.51 1.14s2.46-.38 3.51-1.14l25.39-18.34c1.42.92 2.99 1.65 4.69 2.13zm-11.66-11.9-21.93 15.84-21.93-15.84c.34-1.35.53-2.76.53-4.21v-4.32c6.52 3.9 13.77 6.09 21.4 6.09 7.64 0 14.88-2.19 21.4-6.09v4.32c0 1.46.18 2.87.53 4.21zm-21.93-14.44c-21.72 0-39.4-24.57-39.4-54.78 0-4.72.44-9.35 1.29-13.85 11.27 2.66 24.33 4.06 38.1 4.06s26.83-1.4 38.1-4.06c.85 4.5 1.29 9.14 1.29 13.85.02 30.2-17.66 54.78-39.38 54.78zm40.35-82.5c0 .57-.3.96-.84 1.11-11.06 3.1-25.09 4.81-39.51 4.81-14.41 0-28.44-1.71-39.51-4.81-.54-.15-.84-.55-.84-1.11v-20.69l38.5 12.48c.6.19 1.23.29 1.85.29s1.25-.1 1.85-.29l38.5-12.48zm29.43 41.56 5.07-12.55h3.93l5.07 12.55zm-69.78-61.78-57.36-18.59 57.36-18.59 57.36 18.59zm1.85-49.2c-1.2-.39-2.5-.39-3.7 0l-39.4 12.77v-.98c0-1.56-.61-3.05-1.69-4.17l-13.15-13.59c-3.45-3.56-8.49-4.73-13.15-3.05l-20.75 7.49c-.59.21-1.01.22-1.61.05l-26.16-7.81c-.94-.28-1.5-.86-1.75-1.81l-7.14-27.33 11.63-18.74c.51-.83 1.21-1.21 2.18-1.21h33.18c.72 0 1.19.18 1.72.66l20.74 18.74c.91.82 2.05 1.34 3.26 1.5l35.03 4.49c3.43.44 6.65-.27 9.58-2.1l28-17.53c8.04 19.49 12.94 40.58 14.06 62.64zm-15.33-104.85-7.47 6.77c-.87.79-1.96.91-2.99.33l-30.05-17.06c-1.43-.81-3.14-1-4.72-.52l-30.62 9.35c-.92.28-1.69.12-2.42-.5l-12.88-10.99c-1.01-.86-1.21-2.23-.49-3.34l8.73-13.51c.52-.8 1.2-1.17 2.16-1.17h47.28c12.33 8.87 23.56 19.17 33.47 30.64zm-194.34-60.07 7.61 14.87c2.18 4.26 6.14 7.09 10.87 7.78l25.24 3.67 7.45 3.27c.76.33 1.17.79 1.42 1.59.25.79.17 1.4-.27 2.11l-6.79 11-32.49 7.06c-1.41.31-2.66 1.11-3.52 2.26l-24.85 33.07-34.58 18.15-31.47 5.59c-6.57 1.17-11.35 6.79-11.63 13.68l-.7 17.52c-.08 1.96.8 3.83 2.36 5.02l21.7 16.51c1.27.96 1.87 2.2 1.86 3.79l-.18 17.5-43.4-21.38-23.33-29.7c18.11-64.85 69.61-115.89 134.7-133.36zm89.72 371.78c-13.13 2.8-26.62 4.24-40.17 4.24-105.47 0-191.27-85.8-191.27-191.27 0-12.47 1.21-24.65 3.5-36.46l18.26 23.24c.56.71 1.26 1.28 2.07 1.68l53.17 26.19c.84.41 1.75.62 2.65.62 1.09 0 2.18-.3 3.14-.89 1.76-1.08 2.83-2.99 2.86-5.05l.29-27.03c.06-5.41-2.28-10.2-6.59-13.47l-19.21-14.61.58-14.4c.04-.99.6-2.15 1.74-2.35l32.39-5.75c.61-.11 1.19-.31 1.74-.59l36.6-19.21c.79-.41 1.47-1 2.01-1.71l24.32-32.36 32.79-7.13c1.59-.35 2.97-1.32 3.83-2.71l8.13-13.16c2.25-3.64 2.79-7.9 1.51-11.99-1.27-4.09-4.13-7.29-8.06-9.01l-8.19-3.59c-.49-.22-1.01-.37-1.55-.44l-26.04-3.78c-.91-.13-1.5-.55-1.92-1.37l-6.26-12.23c12.13-2.42 24.67-3.7 37.51-3.7 33.45 0 64.97 8.71 92.41 23.96h-28.37c-5.04 0-9.5 2.43-12.23 6.66l-8.73 13.51c-3.95 6.11-2.75 14.27 2.78 18.99l12.88 10.99c3.86 3.29 8.86 4.33 13.71 2.85l28.15-8.6 27.8 15.79c2.3 1.31 4.78 1.95 7.24 1.95 3.5 0 6.95-1.3 9.73-3.82l6.98-6.33c7.53 9.91 14.12 20.56 19.63 31.83l-29.41 18.41c-.57.36-1.01.46-1.69.37l-33.15-4.28-19.34-17.48c-2.72-2.46-6.1-3.76-9.77-3.76h-33.18c-5.15 0-9.66 2.51-12.38 6.88l-12.99 20.93c-.87 1.4-1.12 3.09-.71 4.68l7.79 29.82c1.32 5.04 4.93 8.78 9.92 10.27l26.16 7.81c3.05.91 6.12.82 9.11-.26l20.75-7.49c.21-.08.29-.06.45.1l11.46 11.85v2.44l-25.41 8.24c-2.47.8-4.15 3.11-4.15 5.71s1.68 4.91 4.15 5.71l26.31 8.53v24.58c0 3.24 1.15 6.22 3.11 8.53-1.42 6.2-2.15 12.64-2.15 19.19 0 20.26 6.99 38.44 18 50.69v14.32c0 2.18-1.35 3.96-3.45 4.55l-54.48 15.36c-12.79 3.62-22.51 12.94-26.76 24.81zm9.64 13.68c0-12.67 8.19-23.49 20.39-26.93l36.24-10.22 39.91 57.48h-96.54zm216.92 20.34h-96.54l39.91-57.48 36.24 10.21c12.19 3.44 20.39 14.26 20.39 26.93zm-217.92-179.43h-12.12l-10.57-16.88c-2.18-3.47-5.77-5.46-9.87-5.46h-25.11c-.48 0-.73-.1-1.08-.45l-17.09-17.05c-3.7-3.69-9.26-4.48-13.84-1.96l-30.93 17.03c-3.78 2.08-6.03 5.89-6.03 10.2v27.61c0 3.72 1.63 7.02 4.6 9.27l26.62 20.23v26.36c0 .65.1 1.29.31 1.9l12.92 38.63c1.53 4.59 4.89 8.01 9.45 9.63l8.59 3.06c1.5.54 3.05.8 4.58.8 2.71 0 5.38-.83 7.7-2.45 3.63-2.54 5.74-6.53 5.78-10.96l.23-24.66 21.66-10.13c5.48-2.56 8.88-7.91 8.88-13.95v-11.61c0-.7.35-1.2 1.01-1.44l12.66-4.51c4.45-1.59 7.61-5.14 8.65-9.75l4.35-19.24c.8-3.52 0-7.02-2.26-9.84-2.25-2.83-5.48-4.38-9.09-4.38zm-4.7 30.81c-.13.58-.41.9-.98 1.1l-12.66 4.51c-5.46 1.95-8.98 6.95-8.98 12.74v11.61c0 1.42-.68 2.48-1.96 3.08l-25.08 11.73c-2.09.98-3.44 3.07-3.46 5.38l-.26 28.43c0 .57-.18.91-.65 1.23-.47.33-.84.38-1.38.19l-8.6-3.06c-1.08-.38-1.72-1.04-2.09-2.13l-12.61-37.7v-25.56c0-3.72-1.63-7.02-4.6-9.27l-26.62-20.23v-27.22l30.51-16.8 16.9 16.86c2.59 2.58 5.89 3.95 9.55 3.95h24.91l10.57 16.88c2.17 3.47 5.77 5.47 9.87 5.47h11.87z"/></svg>