<?xml version="1.0" encoding="UTF-8"?>
<svg xmlns="http://www.w3.org/2000/svg" xmlns:xlink="http://www.w3.org/1999/xlink" version="1.1" id="Capa_1" x="0px" y="0px" viewBox="0 0 512 512" style="enable-background:new 0 0 512 512;" xml:space="preserve" width="512" height="512">
<g>
	<path style="fill:none;stroke:#000000;stroke-width:15;stroke-linecap:round;stroke-linejoin:round;stroke-miterlimit:10;" d="&#10;&#9;&#9;M376.338,504.5h94.052c7.807,0,14.137-6.329,14.137-14.137v-20.78H27.474v20.78c0,7.807,6.329,14.137,14.137,14.137h299.724"/>
	<path style="fill:none;stroke:#000000;stroke-width:15;stroke-linecap:round;stroke-linejoin:round;stroke-miterlimit:10;" d="&#10;&#9;&#9;M444.649,426.667H67.351c-22.024,0-39.878,17.854-39.878,39.878v3.039h457.053v-3.039&#10;&#9;&#9;C484.526,444.52,466.673,426.667,444.649,426.667z"/>
	<path style="fill:none;stroke:#000000;stroke-width:15;stroke-linecap:round;stroke-linejoin:round;stroke-miterlimit:10;" d="&#10;&#9;&#9;M70.512,373.213v-46.912l31.717,45.928c0.588,0.85,1.218,0.433,1.218-0.6l-0.439-45.416"/>
	
		<line style="fill:none;stroke:#000000;stroke-width:15;stroke-linecap:round;stroke-linejoin:round;stroke-miterlimit:10;" x1="134.385" y1="326.213" x2="134.385" y2="373.213"/>
	
		<line style="fill:none;stroke:#000000;stroke-width:15;stroke-linecap:round;stroke-linejoin:round;stroke-miterlimit:10;" x1="390.142" y1="326.213" x2="390.142" y2="373.213"/>
	
		<polyline style="fill:none;stroke:#000000;stroke-width:15;stroke-linecap:round;stroke-linejoin:round;stroke-miterlimit:10;" points="&#10;&#9;&#9;244.622,326.428 224.999,326.428 224.999,372.998 244.622,372.998 &#9;"/>
	
		<line style="fill:none;stroke:#000000;stroke-width:15;stroke-linecap:round;stroke-linejoin:round;stroke-miterlimit:10;" x1="243.175" y1="349.713" x2="224.999" y2="349.713"/>
	<path style="fill:none;stroke:#000000;stroke-width:15;stroke-linecap:round;stroke-linejoin:round;stroke-miterlimit:10;" d="&#10;&#9;&#9;M358.335,331.045c0,0-8.5-7.302-18.379-4.093c-7.237,2.351-9.71,9.64-7.101,14.4c3.141,5.731,9.782,6.08,16.972,8.733&#10;&#9;&#9;c17.309,6.384,9.853,23.13-4.081,23.13c-6.978,0-12.834-3.056-16.378-6.967"/>
	
		<polyline style="fill:none;stroke:#000000;stroke-width:15;stroke-linecap:round;stroke-linejoin:round;stroke-miterlimit:10;" points="&#10;&#9;&#9;474.598,326.213 489.61,349.205 504.5,326.332 &#9;"/>
	
		<line style="fill:none;stroke:#000000;stroke-width:15;stroke-linecap:round;stroke-linejoin:round;stroke-miterlimit:10;" x1="489.552" y1="373.213" x2="489.61" y2="349.205"/>
	<path style="fill:none;stroke:#000000;stroke-width:15;stroke-linecap:round;stroke-linejoin:round;stroke-miterlimit:10;" d="&#10;&#9;&#9;M162.595,326.213l16.069,46.294c0.337,0.948,1.68,0.939,2.004-0.014l15.346-46.194"/>
	<path style="fill:none;stroke:#000000;stroke-width:15;stroke-linecap:round;stroke-linejoin:round;stroke-miterlimit:10;" d="&#10;&#9;&#9;M7.5,326.213v32.341c0,5.508,2.732,9.216,7.373,12.181c2.26,1.444,5.115,2.473,8.663,2.478c3.073,0.004,5.641-0.707,7.764-1.777&#10;&#9;&#9;c5.409-2.724,8.858-6.86,8.858-12.916v-32.307"/>
	
		<line style="fill:none;stroke:#000000;stroke-width:15;stroke-linecap:round;stroke-linejoin:round;stroke-miterlimit:10;" x1="419.815" y1="326.213" x2="445.771" y2="326.213"/>
	
		<line style="fill:none;stroke:#000000;stroke-width:15;stroke-linecap:round;stroke-linejoin:round;stroke-miterlimit:10;" x1="432.741" y1="327.714" x2="432.741" y2="373.213"/>
	
		<line style="fill:none;stroke:#000000;stroke-width:15;stroke-linecap:round;stroke-linejoin:round;stroke-miterlimit:10;" x1="281.923" y1="350.781" x2="301.666" y2="373.213"/>
	
		<line style="fill:none;stroke:#000000;stroke-width:15;stroke-linecap:round;stroke-linejoin:round;stroke-miterlimit:10;" x1="276.256" y1="326.213" x2="276.256" y2="373.213"/>
	<path style="fill:none;stroke:#000000;stroke-width:15;stroke-linecap:round;stroke-linejoin:round;stroke-miterlimit:10;" d="&#10;&#9;&#9;M301.666,338.428c0,6.746-5.915,12.215-12.906,12.215c-3.467,0-12.403,0.054-12.403,0.054l-0.087-24.483c0,0,8.393,0,12.49,0&#10;&#9;&#9;C295.751,326.213,301.666,331.682,301.666,338.428z"/>
	
		<line style="fill:none;stroke:#000000;stroke-width:15;stroke-linecap:round;stroke-linejoin:round;stroke-miterlimit:10;" x1="457.667" y1="271.682" x2="457.667" y2="214.527"/>
	
		<line style="fill:none;stroke:#000000;stroke-width:15;stroke-linecap:round;stroke-linejoin:round;stroke-miterlimit:10;" x1="54.333" y1="214.527" x2="54.333" y2="272.683"/>
	<path style="fill:none;stroke:#000000;stroke-width:15;stroke-linecap:round;stroke-linejoin:round;stroke-miterlimit:10;" d="&#10;&#9;&#9;M372.667,122.85V78.002l-106.071-67.42c-6.466-4.11-14.725-4.11-21.191,0l-106.071,67.42v44.848"/>
	<path style="fill:none;stroke:#000000;stroke-width:15;stroke-linecap:round;stroke-linejoin:round;stroke-miterlimit:10;" d="&#10;&#9;&#9;M201.333,122.85H63.773c-6.516,0-12.158,4.524-13.575,10.884l-13.805,61.966c-1.935,8.688,4.675,16.932,13.575,16.932h89.366"/>
	<path style="fill:none;stroke:#000000;stroke-width:15;stroke-linecap:round;stroke-linejoin:round;stroke-miterlimit:10;" d="&#10;&#9;&#9;M372.667,212.632h89.365c8.901,0,15.511-8.245,13.575-16.932l-13.805-61.966c-1.417-6.36-7.059-10.884-13.575-10.884H310.416"/>
	
		<line style="fill:none;stroke:#000000;stroke-width:15;stroke-linecap:round;stroke-linejoin:round;stroke-miterlimit:10;" x1="119.771" y1="90.436" x2="139.333" y2="78.002"/>
	
		<line style="fill:none;stroke:#000000;stroke-width:15;stroke-linecap:round;stroke-linejoin:round;stroke-miterlimit:10;" x1="392.229" y1="90.436" x2="372.667" y2="78.002"/>
	<path style="fill:none;stroke:#000000;stroke-width:15;stroke-linecap:round;stroke-linejoin:round;stroke-miterlimit:10;" d="&#10;&#9;&#9;M372.667,269.998v-94.469c0-7.746-3.959-14.954-10.496-19.109l-95.575-60.748c-6.466-4.11-14.725-4.11-21.191,0L149.83,156.42&#10;&#9;&#9;c-6.537,4.155-10.496,11.363-10.496,19.109v0.996v93.474"/>
	
		<polyline style="fill:none;stroke:#000000;stroke-width:15;stroke-linecap:round;stroke-linejoin:round;stroke-miterlimit:10;" points="&#10;&#9;&#9;321.333,270.998 321.333,218.527 190.667,218.527 190.667,270.998 &#9;"/>
	
		<line style="fill:none;stroke:#000000;stroke-width:15;stroke-linecap:round;stroke-linejoin:round;stroke-miterlimit:10;" x1="256" y1="218.527" x2="256" y2="270.682"/>
	<path style="fill:none;stroke:#000000;stroke-width:15;stroke-linecap:round;stroke-linejoin:round;stroke-miterlimit:10;" d="&#10;&#9;&#9;M113.669,272.683H484.5c11.046,0,20,8.954,20,20"/>
	<path style="fill:none;stroke:#000000;stroke-width:15;stroke-linecap:round;stroke-linejoin:round;stroke-miterlimit:10;" d="&#10;&#9;&#9;M7.5,292.683c0-11.046,8.954-20,20-20h51.165"/>
	<path style="fill:none;stroke:#000000;stroke-width:15;stroke-linecap:round;stroke-linejoin:round;stroke-miterlimit:10;" d="&#10;&#9;&#9;M504.5,406.667c0,11.046-8.954,20-20,20h-457c-11.046,0-20-8.954-20-20"/>
</g>















</svg>
