<svg height="512" viewBox="0 0 512 512" width="512" xmlns="http://www.w3.org/2000/svg"><g id="Outline"><path d="m197.952 416h18.048v-16h-168a16.019 16.019 0 0 1 -16-16v-16h176v-16h-176v-240a16.019 16.019 0 0 1 16-16h16v240h16v-288a16.019 16.019 0 0 1 16-16h208v40a40.045 40.045 0 0 0 40 40h40v96h16v-104a8 8 0 0 0 -2.343-5.657l-2.343-2.343h20.686a16.019 16.019 0 0 1 16 16v120h16v-120a32.036 32.036 0 0 0 -32-32h-36.686l-61.657-61.657a8 8 0 0 0 -5.657-2.343h-216a32.036 32.036 0 0 0 -32 32v32h-16a32.036 32.036 0 0 0 -32 32v272a32.036 32.036 0 0 0 32 32h133.247l-19.2 64h-10.047v16h112v-16h-85.248zm122.048-344v-28.687l52.687 52.687h-28.687a24.028 24.028 0 0 1 -24-24z"/><path d="m96 48h16v16h-16z"/><path d="m128 48h16v16h-16z"/><path d="m160 48h16v16h-16z"/><path d="m96 216h48v16h-48z"/><path d="m96 256h136v16h-136z"/><path d="m96 296h88v16h-88z"/><path d="m240 176h32v16h-32z"/><path d="m368 136h-104-24v16h24 104z"/><path d="m200 296h24v16h-24z"/><path d="m168 216h144v16h-144z"/><path d="m288 176h80v16h-80z"/><path d="m98.343 165.657 24 24 11.314-11.314-18.344-18.343 18.344-18.343-11.314-11.314-24 24a8 8 0 0 0 0 11.314z"/><path d="m197.657 189.657 24-24a8 8 0 0 0 0-11.314l-24-24-11.314 11.314 18.344 18.343-18.344 18.343z"/><path d="m127.015 152h65.97v15.999h-65.97z" transform="matrix(.243 -.97 .97 .243 -34.029 276.417)"/><path d="m96 80h192v16h-192z"/><path d="m360 336a24 24 0 1 0 24 24 24.028 24.028 0 0 0 -24-24zm0 32a8 8 0 1 1 8-8 8.009 8.009 0 0 1 -8 8z"/><path d="m488 328h-29.142a103.209 103.209 0 0 0 -6.322-15.28l20.6-20.6a8 8 0 0 0 0-11.314l-33.936-33.944a8 8 0 0 0 -11.314 0l-20.6 20.6a103.209 103.209 0 0 0 -15.286-6.32v-29.142a8 8 0 0 0 -8-8h-48a8 8 0 0 0 -8 8v29.142a103.209 103.209 0 0 0 -15.28 6.322l-20.6-20.6a8 8 0 0 0 -11.314 0l-33.944 33.936a8 8 0 0 0 0 11.314l20.6 20.6a103.209 103.209 0 0 0 -6.32 15.286h-29.142a8 8 0 0 0 -8 8v48a8 8 0 0 0 8 8h29.142a103.209 103.209 0 0 0 6.322 15.28l-20.6 20.6a8 8 0 0 0 0 11.314l33.936 33.944a8 8 0 0 0 11.314 0l20.6-20.6a103.3 103.3 0 0 0 15.286 6.32v29.142a8 8 0 0 0 8 8h48a8 8 0 0 0 8-8v-29.142a103.3 103.3 0 0 0 15.28-6.323l20.6 20.6a8 8 0 0 0 11.314 0l33.944-33.935a8 8 0 0 0 0-11.314l-20.6-20.6a103.209 103.209 0 0 0 6.32-15.286h29.142a8 8 0 0 0 8-8v-48a8 8 0 0 0 -8-8zm-8 48h-27.146a8 8 0 0 0 -7.747 6 87.369 87.369 0 0 1 -9.363 22.622 8 8 0 0 0 1.232 9.725l19.191 19.19-22.628 22.628-19.19-19.191a8 8 0 0 0 -9.725-1.233 87.4 87.4 0 0 1 -22.624 9.366 8 8 0 0 0 -6 7.747v27.146h-32v-27.146a8 8 0 0 0 -6-7.747 87.4 87.4 0 0 1 -22.622-9.364 8 8 0 0 0 -9.725 1.233l-19.19 19.191-22.628-22.628 19.191-19.19a8 8 0 0 0 1.232-9.725 87.369 87.369 0 0 1 -9.365-22.624 8 8 0 0 0 -7.747-6h-27.146v-32h27.146a8 8 0 0 0 7.747-6 87.369 87.369 0 0 1 9.363-22.622 8 8 0 0 0 -1.232-9.725l-19.191-19.19 22.628-22.628 19.19 19.191a8 8 0 0 0 9.725 1.232 87.369 87.369 0 0 1 22.624-9.365 8 8 0 0 0 6-7.747v-27.146h32v27.146a8 8 0 0 0 6 7.747 87.369 87.369 0 0 1 22.622 9.363 8 8 0 0 0 9.725-1.232l19.19-19.191 22.628 22.628-19.191 19.19a8 8 0 0 0 -1.232 9.725 87.369 87.369 0 0 1 9.365 22.624 8 8 0 0 0 7.747 6h27.146z"/><path d="m360 296a64 64 0 1 0 64 64 64.072 64.072 0 0 0 -64-64zm0 112a48 48 0 1 1 48-48 48.053 48.053 0 0 1 -48 48z"/></g></svg>