<svg id="Layer_1" enable-background="new 0 0 52 52" height="512" viewBox="0 0 52 52" width="512" xmlns="http://www.w3.org/2000/svg"><linearGradient id="SVGID_1_" gradientUnits="userSpaceOnUse" x1="0" x2=".707" y1="-806" y2="-805.293"><stop offset="0" stop-color="#dedfe3"/><stop offset=".1783311" stop-color="#dadbdf"/><stop offset=".3611409" stop-color="#cecfd3"/><stop offset=".546043" stop-color="#b9bcbf"/><stop offset=".7323959" stop-color="#9ca0a2"/><stop offset=".9181451" stop-color="#787d7e"/><stop offset="1" stop-color="#656b6c"/></linearGradient><g id="_x31_4"><path d="m5.7998047 49.9580078h40.3896484c2.1015625 0 3.8105469-1.7050781 3.8105469-3.8007812v-39.8652344c0-2.3432617-1.90625-4.25-4.25-4.25h-39.5c-2.34375 0-4.25 1.9067383-4.25 4.25v39.8652344c0 2.0957031 1.7050781 3.8007812 3.7998047 3.8007812zm40.3896484-2h-40.3896484c-.9921875 0-1.7998047-.8076172-1.7998047-1.8007812v-29.6601563h3.2001953v16.9882813c0 .6572266.390625 1.25.9941406 1.5097656.6054688.2587891 1.3027344.1357422 1.7792969-.3173828l4.0097656-3.7998047 4.0087891 3.7998047c.3115234.2958984.7177734.4511719 1.1298828.4511719.9024353 0 1.6435547-.7314415 1.6435547-1.6435547v-16.9882813h27.234375v29.6601563c0 .993164-.8125 1.8007812-1.8105469 1.8007812zm-36.9892578-31.4609375h9.5654297v16.1582031l-3.6533203-3.4619141c-.6328125-.5996094-1.6269531-.5996094-2.2597656.0009766l-3.6523438 3.4609375zm-2.9501953-12.4550781h39.5c1.2402344 0 2.25 1.0092773 2.25 2.25v8.2050781c-4.7180405 0-39.1269836 0-44 0v-8.2050781c0-1.2407227 1.0097656-2.25 2.25-2.25z"/><path d="m9.2119141 12.6689453c1.6542969 0 3-1.3457031 3-3s-1.3457031-3-3-3-3 1.3457031-3 3 1.3457031 3 3 3zm0-4c.5517578 0 1 .4487305 1 1 0 .5605469-.4394531 1-1 1-.5517578 0-1-.4487305-1-1s.4482422-1 1-1z"/><path d="m17.2119141 12.6689453c1.6542969 0 3-1.3457031 3-3s-1.3457031-3-3-3-3 1.3457031-3 3 1.3457031 3 3 3zm0-4c.5517578 0 1 .4487305 1 1 0 .5605469-.4394531 1-1 1-.5517578 0-1-.4487305-1-1s.4482422-1 1-1z"/><path d="m25.2119141 12.6689453c1.6542969 0 3-1.3457031 3-3s-1.3457031-3-3-3-3 1.3457031-3 3 1.3457031 3 3 3zm0-4c.5517578 0 1 .4487305 1 1 0 .5605469-.4394531 1-1 1-.5517578 0-1-.4487305-1-1s.4482422-1 1-1z"/><path d="m33.3525391 12.6689453h9.4296875c1.6324272 0 3-1.3132477 3-3 0-1.6542969-1.3457031-3-3-3h-9.4296875c-1.6926384 0-3 1.379179-3 3 0 1.6542969 1.3457031 3 3 3zm0-4h9.4296875c.5517578 0 1 .4487305 1 1 0 .5824671-.4738197 1-1 1h-9.4296875c-.5517578 0-1-.4487305-1-1 0-.5119076.4209365-1 1-1z"/><path d="m15.765625 27.0976563c.5527344 0 1-.4472656 1-1v-6.6005859c0-.5527344-.4472656-1-1-1s-1 .4472656-1 1v6.6005859c0 .5527343.4472656 1 1 1z"/><path d="m44.4072266 37.921875h-36.2070313c-.5527344 0-1 .4472656-1 1s.4472656 1 1 1h36.2070313c.5527344 0 1-.4472656 1-1s-.4472657-1-1-1z"/><path d="m44.4072266 42.7148438h-36.2070313c-.5527344 0-1 .4472656-1 1s.4472656 1 1 1h36.2070313c.5527344 0 1-.4472656 1-1s-.4472657-1-1-1z"/><path d="m29.203125 29.9863281-.8232422 4.7998047c-.0644531.375.0898438.7539063.3974609.9775391.3085938.2255859.71875.2539063 1.0527344.0761719l4.3115234-2.265625 4.3115234 2.265625c.1455078.0771484.3056641.1152344.4648438.1152344.6198807 0 1.0899887-.560154.9853516-1.1689453l-.8232422-4.7998047 3.4882813-3.4003906c.2724609-.265625.3701172-.6630859.2529297-1.0244141-.1181641-.3623047-.4306641-.6259766-.8076172-.6806641l-4.8193359-.7011719-2.15625-4.3671875c-.3359375-.6835938-1.4570313-.6835938-1.7929688 0l-2.1552734 4.3671875-4.8203125.7011719c-.3769531.0546875-.6894531.3183594-.8076172.6806641-.1171875.3613281-.0195313.7587891.2529297 1.0244141zm2.6943359-3.9033203c.3261719-.046875.6074219-.2519531.7529297-.546875l1.4912109-3.0214844 1.4921875 3.0214844c.1455078.2949219.4267578.5.7529297.546875l3.3349609.4853516-2.4140625 2.3525391c-.2353516.2294922-.3427734.5605469-.2871094.8847656l.5693359 3.3212891-2.9833984-1.5673828c-.1455078-.0771484-.3046875-.1152344-.4648438-.1152344s-.3193359.0380859-.4648438.1152344l-2.9833984 1.5673828.5693359-3.3212891c.0556641-.3242188-.0517578-.6552734-.2871094-.8847656l-2.4140625-2.3525391z"/></g></svg>