<svg id="Layer_1" enable-background="new 0 0 512 512" viewBox="0 0 512 512" xmlns="http://www.w3.org/2000/svg"><path clip-rule="evenodd" d="m484.75 462.53h-96.54l39.91-57.48 36.24 10.21c12.2 3.44 20.39 14.26 20.39 26.93zm-120.37 0-39.92-57.48-36.24 10.21c-12.19 3.44-20.39 14.26-20.39 26.93v20.34zm-27.7-60.92 39.61 57.05 39.61-57.05-6.02-1.69c-1.7-.48-3.27-1.21-4.68-2.14l-25.4 18.35c-1.05.75-2.28 1.13-3.51 1.13s-2.46-.38-3.51-1.13l-25.4-18.35c-1.41.92-2.98 1.65-4.68 2.14zm17.68-13.59 21.93 15.83 21.93-15.83c-.35-1.35-.53-2.76-.53-4.21v-4.32c-6.52 3.9-13.76 6.09-21.4 6.09-7.63 0-14.88-2.19-21.4-6.09v4.32c0 1.45-.18 2.86-.53 4.21zm-17.47-69.23c0 30.2 17.68 54.78 39.4 54.78s39.4-24.58 39.4-54.78c0-4.72-.44-9.35-1.3-13.85-11.27 2.66-24.33 4.06-38.1 4.06s-26.83-1.4-38.1-4.06c-.86 4.5-1.3 9.13-1.3 13.85zm-.11-26.6c11.07 3.1 25.1 4.81 39.51 4.81 14.42 0 28.45-1.71 39.51-4.81.54-.15.84-.55.84-1.11v-20.69l-38.5 12.48c-.6.2-1.23.29-1.85.29s-1.25-.09-1.85-.29l-38.5-12.48v20.69c0 .56.3.96.84 1.11zm-17.85-39.93 57.36 18.59 57.36-18.59-57.36-18.59zm16.11-17.84 39.4-12.77c1.2-.39 2.5-.39 3.7 0l30.89 10.02c-1.12-22.06-6.02-43.15-14.06-62.64l-28 17.53c-2.93 1.83-6.16 2.54-9.58 2.1l-35.03-4.49c-1.22-.16-2.35-.68-3.26-1.5l-20.74-18.75c-.53-.48-1-.66-1.72-.66h-33.17c-.98 0-1.67.38-2.18 1.21l-11.64 18.74 7.14 27.33c.25.95.81 1.53 1.75 1.81l26.16 7.81c.6.18 1.01.16 1.6-.05l20.75-7.48c4.66-1.69 9.7-.52 13.15 3.05l13.15 13.59c1.08 1.12 1.69 2.61 1.69 4.17zm-12 1.45-11.46-11.85c-.16-.16-.24-.18-.45-.11l-20.75 7.49c-3 1.08-6.06 1.17-9.11.26l-26.16-7.81c-4.99-1.49-8.61-5.23-9.93-10.27l-7.79-29.82c-.42-1.59-.16-3.28.71-4.68l12.99-20.93c2.72-4.37 7.23-6.88 12.38-6.88h33.17c3.67 0 7.05 1.3 9.77 3.76l19.34 17.48 33.16 4.25c.68.09 1.12-.01 1.69-.37l29.41-18.4c-5.51-11.27-12.1-21.93-19.63-31.84l-6.99 6.33c-2.78 2.52-6.23 3.82-9.73 3.82-2.46 0-4.94-.64-7.24-1.94l-27.8-15.79-28.15 8.6c-4.85 1.48-9.85.44-13.71-2.85l-12.88-10.98c-5.53-4.72-6.73-12.88-2.78-18.99l8.73-13.51c2.74-4.23 7.19-6.66 12.23-6.66h28.37c-27.44-15.25-58.95-23.96-92.41-23.96-12.83 0-25.37 1.28-37.51 3.7l6.26 12.23c.42.82 1.01 1.24 1.91 1.37l26.04 3.79c.54.07 1.06.22 1.55.44l8.19 3.59c3.93 1.72 6.79 4.92 8.06 9 1.27 4.09.74 8.35-1.51 11.99l-8.13 13.16c-.86 1.38-2.24 2.36-3.83 2.71l-32.8 7.13-24.32 32.36c-.53.71-1.22 1.29-2.01 1.71l-36.59 19.21c-.55.29-1.14.49-1.74.59l-32.39 5.75c-1.14.2-1.7 1.36-1.74 2.35l-.57 14.4 19.2 14.61c4.31 3.27 6.65 8.06 6.6 13.47l-.29 27.03c-.02 2.06-1.1 3.97-2.86 5.05-.96.59-2.05.89-3.14.89-.91 0-1.81-.2-2.65-.62l-53.18-26.19c-.8-.4-1.51-.97-2.06-1.67l-18.26-23.25c-2.29 11.81-3.5 24-3.5 36.46 0 105.47 85.8 191.27 191.27 191.27 13.55 0 27.04-1.43 40.17-4.24 4.25-11.87 13.97-21.18 26.77-24.8l54.48-15.35c2.1-.59 3.45-2.38 3.45-4.56v-14.32c-11-12.26-18-30.43-18-50.69 0-6.56.74-12.99 2.16-19.19-1.96-2.31-3.11-5.28-3.11-8.53v-24.57l-26.31-8.53c-2.48-.8-4.15-3.11-4.15-5.71s1.67-4.9 4.15-5.71l25.41-8.24zm-88.77 24.9h-25.1c-.49 0-.74-.11-1.08-.45l-17.09-17.05c-3.7-3.69-9.26-4.48-13.84-1.96l-30.93 17.03c-3.77 2.08-6.03 5.89-6.03 10.2v27.61c0 3.72 1.63 7.01 4.6 9.27l26.62 20.23v26.36c0 .65.1 1.29.31 1.9l12.92 38.63c1.53 4.59 4.89 8.01 9.44 9.63l8.6 3.05c1.5.53 3.05.8 4.57.8 2.72 0 5.38-.83 7.7-2.46 3.64-2.53 5.74-6.52 5.79-10.96l.23-24.65 21.66-10.13c5.47-2.56 8.88-7.9 8.88-13.95v-11.61c0-.7.35-1.2 1.01-1.43l12.65-4.51c4.46-1.59 7.61-5.14 8.65-9.75l4.36-19.24c.8-3.52-.01-7.01-2.26-9.84-2.26-2.82-5.49-4.38-9.1-4.38h-12.12l-10.57-16.88c-2.18-3.48-5.77-5.46-9.87-5.46zm10.37 28.87-10.57-16.88h-24.9c-3.66 0-6.96-1.36-9.56-3.95l-16.9-16.86-30.51 16.8v27.22l26.62 20.23c2.97 2.26 4.6 5.55 4.6 9.27v25.56l12.61 37.7c.36 1.09 1 1.74 2.08 2.13l8.6 3.05c.54.19.92.14 1.38-.18.47-.33.65-.67.66-1.23l.26-28.44c.03-2.31 1.37-4.4 3.46-5.37l25.08-11.74c1.29-.6 1.97-1.67 1.97-3.08v-11.61c0-5.79 3.52-10.79 8.98-12.74l12.66-4.51c.56-.2.84-.52.97-1.1l4.26-18.81h-11.88c-4.1 0-7.69-1.99-9.87-5.46zm-91.49-146.24 24.85-33.06c.86-1.15 2.11-1.95 3.52-2.26l32.49-7.06 6.79-11c.43-.71.51-1.31.26-2.11-.24-.79-.65-1.25-1.42-1.59l-7.44-3.27-25.24-3.66c-4.73-.69-8.7-3.52-10.87-7.78l-7.62-14.88c-65.09 17.48-116.59 68.52-134.7 133.35l23.33 29.7 43.4 21.38.19-17.5c.01-1.59-.59-2.83-1.86-3.8l-21.7-16.5c-1.56-1.19-2.44-3.06-2.36-5.01l.7-17.52c.28-6.89 5.06-12.52 11.63-13.68l31.47-5.59zm118.52-39.2 12.88 10.98c.73.62 1.5.78 2.41.5l30.62-9.35c1.57-.48 3.28-.29 4.71.52l30.05 17.06c1.03.58 2.12.46 2.99-.33l7.48-6.77c-9.91-11.47-21.14-21.77-33.47-30.64h-47.28c-.95 0-1.63.38-2.15 1.17l-8.73 13.51c-.72 1.12-.52 2.49.49 3.35zm175.43 204.12c-2.81.63-5.19 2.57-6.31 5.34l-6.34 15.69c-1.41 3.48-1.01 7.26 1.09 10.38s5.46 4.9 9.22 4.9h16.69c3.76 0 7.12-1.78 9.22-4.9 2.1-3.11 2.5-6.9 1.09-10.38l-6.34-15.7c-1.12-2.76-3.5-4.7-6.32-5.34v-51.65l-12 3.89zm13.04 24.31-5.07-12.55h-3.93l-5.07 12.55z" fill-rule="evenodd"/></svg>