<?xml version="1.0"?>
<svg xmlns="http://www.w3.org/2000/svg" id="Layer_1" data-name="Layer 1" viewBox="0 0 64 64" width="512" height="512"><path d="M31.465,13.927,21,11.02V12a6,6,0,0,0,6,6H37a6,6,0,0,0,6-6v-.98L32.535,13.927a2,2,0,0,1-1.07,0Z"/><polygon points="49 13 49 7.278 50 7 32 2 14 7 32 12 47 7.833 47 13 49 13"/><path d="M58.991,53.07a10.287,10.287,0,0,0,2.928-6.037A3.493,3.493,0,0,0,58.741,50.5h-1a4.492,4.492,0,0,1,4.235-4.473A10.36,10.36,0,0,0,57.991,38a11.486,11.486,0,0,0-2.785,3.343A4.5,4.5,0,0,1,57.991,45.5h-1a3.5,3.5,0,0,0-2.221-3.25,9.8,9.8,0,0,0,2.221,10.82V60H53V39H49V26.667l2,.666V30l8,2-2-3,2-1-6-1.5V24l-6-2V39H41V60H39V35L32,25,25,35V60H23V39H17V22l-6,2v2.5L5,28l2,1L5,32l8-2V27.333l2-.666V39H11V60H7.015V53.07a10.287,10.287,0,0,0,2.928-6.037A3.493,3.493,0,0,0,6.765,50.5h-1A4.492,4.492,0,0,1,10,46.027,10.36,10.36,0,0,0,6.015,38,11.486,11.486,0,0,0,3.23,41.343,4.5,4.5,0,0,1,6.015,45.5h-1a3.5,3.5,0,0,0-2.221-3.25A9.8,9.8,0,0,0,5.015,53.07V60H2v2H62V60H58.991ZM16,50H14V48h2Zm0-6H14V42h2Zm4,6H18V48h2Zm0-6H18V42h2Zm8-6h2v2H28Zm0,6h2v2H28Zm7,16H29V53h6Zm1-14H34V44h2Zm0-6H34V38h2ZM46,50H44V48h2Zm0-6H44V42h2Zm4,6H48V48h2Zm0-6H48V42h2Z"/></svg>
