<svg id="Layer_1" height="512" viewBox="0 0 36 36" width="512" xmlns="http://www.w3.org/2000/svg" data-name="Layer 1"><g fill-rule="evenodd"><path d="m34 12.29h-32v17.14a4.58 4.58 0 0 0 4.57 4.57h22.86a4.58 4.58 0 0 0 4.57-4.57zm-24 17.71a1.15 1.15 0 1 1 1.14-1.14 1.14 1.14 0 0 1 -1.14 1.14zm0-5.71a1.15 1.15 0 1 1 1.14-1.15 1.15 1.15 0 0 1 -1.14 1.16zm0-5.72a1.14 1.14 0 1 1 1.14-1.14 1.14 1.14 0 0 1 -1.14 1.15zm13.71 11.43h-9.14a1.15 1.15 0 0 1 0-2.29h9.14a1.15 1.15 0 1 1 0 2.29zm-10.28-6.85a1.14 1.14 0 0 1 1.14-1.15h6.86a1.15 1.15 0 0 1 0 2.29h-6.86a1.15 1.15 0 0 1 -1.14-1.14zm12.57-4.57h-11.43a1.14 1.14 0 1 1 0-2.28h11.43a1.14 1.14 0 0 1 0 2.28z"/><path d="m34 10v-3.43a4.58 4.58 0 0 0 -4.57-4.57h-22.86a4.58 4.58 0 0 0 -4.57 4.57v3.43zm-5.71-4.57a1.14 1.14 0 1 1 -1.15 1.14 1.14 1.14 0 0 1 1.15-1.14zm-4.58 0a1.14 1.14 0 1 1 -1.14 1.14 1.14 1.14 0 0 1 1.14-1.14zm-16 0h4.58a1.14 1.14 0 0 1 0 2.28h-4.58a1.14 1.14 0 0 1 0-2.28z"/></g></svg>