<svg id="Layer_1" enable-background="new 0 0 68 68" viewBox="0 0 68 68" xmlns="http://www.w3.org/2000/svg"><g><path d="m11.3747559 10.2944336c-.9345703 0-1.6953125.7607422-1.6953125 1.6958008 0 .9345703.7607422 1.6953125 1.6953125 1.6953125.9506836 0 1.6958008-.7446289 1.6958008-1.6953125-.0000001-.9350586-.7607422-1.6958008-1.6958008-1.6958008z"/><path d="m17.8044434 38.0458984c.4624023 0 .9243164.1708984 1.284668.5117188l5.5097656 5.222168v-22.9350586h-13.588379v22.9350586l5.5092773-5.2216797c.3603517-.3413086.822754-.5122071 1.2846681-.5122071zm1.402832-12.8100586c0-.5522461.4477539-1 1-1 .5527344 0 1 .4477539 1 1v8.8969727c0 .5522461-.4472656 1-1 1-.5522461 0-1-.4477539-1-1z"/><path d="m39.708252 45.9765625-1.1328125 6.605957 5.9335938-3.1191406c.2910156-.1533203.6376953-.1533203.9306641 0l5.9316406 3.1191406-1.1328125-6.605957c-.0556641-.3242188.0517578-.6552734.2871094-.8852539l4.7998047-4.6782227-6.6318359-.9638672c-.3261719-.0473633-.6074219-.2519531-.7529297-.5473633l-2.9667969-6.0102539-2.9667969 6.0102539c-.1455078.2954102-.4267578.5-.7529297.5473633l-6.6328125.9638672 4.7998047 4.6787109c.2353514.2294923.3427733.560547.2871093.8847657z"/><path d="m22.1564941 10.2944336c-.9345703 0-1.6943359.7607422-1.6943359 1.6958008 0 .9345703.7597656 1.6953125 1.6943359 1.6953125.9511719 0 1.6962891-.7446289 1.6962891-1.6953125 0-.9350586-.7607422-1.6958008-1.6962891-1.6958008z"/><path d="m26.598877 44.0883789c0 .7470703-.4433594 1.4204102-1.1298828 1.715332-.6884766.2973633-1.4804688.1538086-2.0214844-.3603516l-5.6430664-5.347168-5.6420898 5.347168c-.3540039.3359375-.8154297.5126953-1.2841797.5126953-.2490234 0-.5-.0498047-.737793-.1523438-.6865234-.2949219-1.1298828-.9682617-1.1298828-1.715332v-23.2436522h-5.0087891v40.3232422c0 1.5292969 1.2441406 2.7734375 2.7739258 2.7734375h54.4355469c1.5371094 0 2.7871094-1.2441406 2.7871094-2.7734375v-40.3232422h-37.3994141zm4.9228515-4.6826172c.1181641-.3618164.4306641-.6259766.8076172-.6806641l8.1171875-1.1796875 3.6308594-7.3554688c.3359375-.6826172 1.4570313-.6826172 1.7929688 0l3.6308594 7.3554688 8.1171875 1.1796875c.3769531.0546875.6894531.3188477.8076172.6806641.1171875.3623047.0195313.7592773-.2529297 1.0253906l-5.875 5.7255859 1.3867188 8.0849609c.0644531.375-.0898438.7543945-.3974609.9780273-.3095703.2246094-.7158203.253418-1.0537109.0761719l-7.2597656-3.8173828-7.2607422 3.8173828c-.1464844.0766602-.3066406.1147461-.4658203.1147461-.2070313 0-.4130859-.0644531-.5878906-.190918-.3076172-.2236328-.4619141-.6030273-.3974609-.9780273l1.3867188-8.0849609-5.8740234-5.7260742c-.2724613-.2656249-.3701176-.6630859-.2529301-1.0249023z"/><path d="m56.6193848 10.2944336h-12.709961c-.4541016 0-.875.1748047-1.1835938.4926758-.3369141.3286133-.5117188.7490234-.5117188 1.203125 0 .9345703.7607422 1.6953125 1.6953125 1.6953125h12.7099609c.4541016 0 .8828125-.1782227 1.2060547-.5014648.3154297-.315918.4892578-.7397461.4892578-1.1938477.0000002-.9350586-.760742-1.6958008-1.6953123-1.6958008z"/><path d="m32.9387207 10.2944336c-.9345703 0-1.6953125.7607422-1.6953125 1.6958008 0 .9345703.7607422 1.6953125 1.6953125 1.6953125.9501953 0 1.6953125-.7446289 1.6953125-1.6953125 0-.9350586-.7607422-1.6958008-1.6953125-1.6958008z"/><path d="m60.6184082 4.0585938h-53.2363281c-1.8637695 0-3.3803711 1.5166016-3.3803711 3.3803711v11.4057617h6.0087891 15.5883789 38.399414v-11.4057618c0-1.8637695-1.5166015-3.380371-3.3798828-3.380371zm-49.2436523 11.6269531c-2.0375977 0-3.6953125-1.6577148-3.6953125-3.6953125 0-2.0380859 1.6577148-3.6958008 3.6953125-3.6958008 2.0380859 0 3.6958008 1.6577148 3.6958008 3.6958008-.0000001 2.0375976-1.6577149 3.6953125-3.6958008 3.6953125zm10.7817382 0c-2.0371094 0-3.6948242-1.6577148-3.6948242-3.6953125 0-2.0380859 1.6577148-3.6958008 3.6948242-3.6958008 2.0380859 0 3.6962891 1.6577148 3.6962891 3.6958008 0 2.0375976-1.6582031 3.6953125-3.6962891 3.6953125zm10.7822266 0c-2.0380859 0-3.6953125-1.6577148-3.6953125-3.6953125 0-2.0380859 1.6572266-3.6958008 3.6953125-3.6958008s3.6953125 1.6577148 3.6953125 3.6958008c0 2.0375976-1.6572266 3.6953125-3.6953125 3.6953125zm26.3007813-1.0878906c-.7001953.7016602-1.6308594 1.0878906-2.6201172 1.0878906h-12.709961c-2.0380859 0-3.6953125-1.6577148-3.6953125-3.6953125 0-.9980469.3896484-1.9272461 1.0966797-2.6166992.6699219-.6889648 1.5996094-1.0791016 2.5986328-1.0791016h12.7099609c2.0380859 0 3.6953125 1.6577148 3.6953125 3.6958008.0000001.9882812-.3818359 1.9140625-1.0751952 2.6074219z"/></g></svg>